<?xml version="1.0" encoding="UTF-8" standalone="no" ?>
<!DOCTYPE svg PUBLIC "-//W3C//DTD SVG 1.1//EN" "http://www.w3.org/Graphics/SVG/1.1/DTD/svg11.dtd">
<svg xmlns="http://www.w3.org/2000/svg" xmlns:xlink="http://www.w3.org/1999/xlink" version="1.1" width="400" height="400" viewBox="0 0 400 400" xml:space="preserve">
<desc>Created with Fabric.js 3.6.2</desc>
<defs>
</defs>
<g transform="matrix(8.37 0 0 8.37 200 200)" id="Layer_1"  >
<path style="stroke: none; stroke-width: 1; stroke-dasharray: none; stroke-linecap: butt; stroke-dashoffset: 0; stroke-linejoin: miter; stroke-miterlimit: 4; fill: rgb(0,0,0); fill-rule: nonzero; opacity: 1;"  transform=" translate(-12, -12)" d="M 8.794 21.137 c -2.173 0 -4.325 -0.602 -6.225 -1.738 l -2.511 -1.506 l 2.928 0.05 c 0.057 0.004 0.132 0.007 0.248 0.007 c 0.441 0 1.856 -0.062 3.42 -0.751 c -1.188 -0.591 -2.107 -1.629 -2.534 -2.897 l -0.462 -1.372 l 0.021 0.004 c -0.579 -0.78 -0.924 -1.72 -0.978 -2.708 l -0.068 -1.27 l 0.491 0.214 C 2.662 8.116 2.358 6.519 3.36 4.692 l 0.577 -1.046 l 0.729 0.945 c 1.66 2.146 4.117 3.522 6.793 3.819 c 0.004 -2.376 1.813 -4.83 4.837 -4.83 c 1.189 0 2.358 0.451 3.239 1.245 c 0.98 -0.271 1.878 -0.817 1.889 -0.823 l 1.852 -1.14 l -0.7 2.06 c -0.054 0.156 -0.115 0.31 -0.184 0.458 l 1.549 -0.757 l -0.933 2.005 c -0.398 0.857 -1.055 1.591 -1.86 2.086 c 0.111 2.893 -1.11 6.107 -3.222 8.445 c -1.621 1.798 -4.509 3.947 -9.057 3.976 L 8.794 21.137 z M 2.844 18.689 l 0.111 0.066 c 1.781 1.067 3.8 1.632 5.836 1.632 h 0.073 c 4.275 -0.028 6.985 -2.043 8.507 -3.729 c 2.038 -2.257 3.193 -5.371 3.018 -8.128 l -0.016 -0.238 l 0.209 -0.114 c 0.762 -0.417 1.382 -1.079 1.748 -1.864 l 0.04 -0.089 l -0.209 0.104 c -0.216 0.094 -0.408 0.167 -0.606 0.231 l -1.228 0.402 l 0.822 -0.996 c 0.316 -0.384 0.558 -0.815 0.717 -1.284 l 0.03 -0.09 l -0.08 0.049 c -0.009 0.006 -1.12 0.687 -2.302 0.964 l -0.2 0.047 l -0.148 -0.145 c -0.757 -0.748 -1.803 -1.178 -2.869 -1.178 c -2.56 0 -4.088 2.078 -4.088 4.088 c 0 0.049 0.012 0.202 0.029 0.369 l 0.042 0.44 l -0.44 -0.029 C 8.785 8.991 5.955 7.479 4.074 5.05 L 4.042 5.008 L 4.017 5.054 C 2.817 7.238 3.809 9.042 4.29 9.717 l 0.655 0.917 l -1.073 -0.343 c -0.127 -0.04 -0.252 -0.089 -0.374 -0.142 l -0.053 -0.023 l 0.003 0.058 c 0.068 1.243 0.677 2.394 1.67 3.156 l 1.466 1.126 L 4.81 14.002 l 0.021 0.061 c 0.441 1.314 1.506 2.336 2.847 2.736 l 0.844 0.252 l -0.767 0.433 c -1.995 1.126 -3.964 1.214 -4.52 1.214 c -0.133 0 -0.219 -0.003 -0.271 -0.005 L 2.844 18.689 z" stroke-linecap="round" />
</g>
</svg>