<?xml version="1.0" encoding="UTF-8" standalone="no" ?>
<!DOCTYPE svg PUBLIC "-//W3C//DTD SVG 1.1//EN" "http://www.w3.org/Graphics/SVG/1.1/DTD/svg11.dtd">
<svg xmlns="http://www.w3.org/2000/svg" xmlns:xlink="http://www.w3.org/1999/xlink" version="1.1" width="400" height="400" viewBox="0 0 400 400" xml:space="preserve">
<desc>Created with Fabric.js 3.6.2</desc>
<defs>
</defs>
<g transform="matrix(0.02 0 0 0.02 200 200)" id="Layer_x0020_1"  >
<rect style="stroke: none; stroke-width: 1; stroke-dasharray: none; stroke-linecap: butt; stroke-dashoffset: 0; stroke-linejoin: miter; stroke-miterlimit: 4; fill: none; fill-rule: evenodd; opacity: 1;"  x="-5939" y="-5939" rx="0" ry="0" width="11878" height="11878" />
</g>
<g transform="matrix(0.02 0 0 0.02 180 200)" id="_899333944"  >
<path style="stroke: none; stroke-width: 1; stroke-dasharray: none; stroke-linecap: butt; stroke-dashoffset: 0; stroke-linejoin: miter; stroke-miterlimit: 4; fill: rgb(0,0,0); fill-rule: nonzero; opacity: 1;"  transform=" translate(-4750.97, -5939)" d="M 4779 5538 l 0 802 c 0 0 776 -1 1092 -1 c -172 519 -437 802 -1092 802 c -663 0 -1180 -538 -1180 -1202 c 0 -664 517 -1202 1180 -1202 c 350 0 576 123 784 295 c 166 -166 152 -190 575 -590 c -359 -327 -836 -527 -1359 -527 c -1116 0 -2020 906 -2020 2024 c 0 1118 904 2024 2020 2024 c 1667 0 2075 -1455 1940 -2425 l -1940 0 z" stroke-linecap="round" />
</g>
<g transform="matrix(0.02 0 0 0.02 237.38 198.31)" id="_899333944"  >
<polygon style="stroke: none; stroke-width: 1; stroke-dasharray: none; stroke-linecap: butt; stroke-dashoffset: 0; stroke-linejoin: miter; stroke-miterlimit: 4; fill: rgb(0,0,0); fill-rule: nonzero; opacity: 1;"  points="260,-260.5 260,-961.5 -240,-961.5 -240,-260.5 -960,-260.5 -960,240.5 -240,240.5 -240,961.5 260,961.5 260,240.5 960,240.5 960,-260.5 " />
</g>
</svg>